<?xml version="1.0" encoding="UTF-8"?>
<!-- Generator: Adobe Illustrator 17.1.0, SVG Export Plug-In . SVG Version: 6.00 Build 0)  -->
<svg enable-background="new 0 0 263.52 155.52" version="1.1" viewBox="0 0 12.386 14.359" xml:space="preserve" xmlns="http://www.w3.org/2000/svg" xmlns:cc="http://creativecommons.org/ns#" xmlns:dc="http://purl.org/dc/elements/1.1/" xmlns:rdf="http://www.w3.org/1999/02/22-rdf-syntax-ns#"><metadata><rdf:RDF><cc:Work rdf:about=""><dc:format>image/svg+xml</dc:format><dc:type rdf:resource="http://purl.org/dc/dcmitype/StillImage"/><dc:title/></cc:Work></rdf:RDF></metadata>

<g transform="translate(-76.789 -70.58)">
	
		<rect transform="matrix(.7071 .7071 -.7071 .7071 79.289 -35.902)" x="73.414" y="68.192" width="19.135" height="19.135" clip-rule="evenodd" fill="none" fill-rule="evenodd"/>
	<g clip-rule="evenodd" fill="#764ABC" fill-rule="evenodd">
		<path d="m80.317 82.377v-9.249c0.101-0.011 1.839-0.046 2.624-0.023 0.523 0.016 1.047 0.068 1.527 0.321 0.749 0.395 1.16 1.03 1.183 1.853 0.042 1.491 0.024 2.983 0.02 4.475-1e-3 0.292-0.026 0.59-0.084 0.875-0.176 0.861-0.744 1.362-1.553 1.628-0.368 0.121-0.745 0.14-1.129 0.137-0.771-7e-3 -1.542-1e-3 -2.313-2e-3 -0.084-1e-3 -0.169-9e-3 -0.275-0.015zm0.878-8.357v7.433c0.05 0.01 0.085 0.023 0.119 0.023 0.706 0 1.412 0.011 2.117-0.013 0.206-7e-3 0.422-0.091 0.611-0.184 0.557-0.274 0.744-0.78 0.749-1.356 0.012-1.462 8e-3 -2.924 5e-3 -4.386-2e-3 -0.876-0.567-1.466-1.447-1.499-0.641-0.025-2.063-0.025-2.154-0.018z"/>
		<path d="m78.407 78.852v5.174c0.077 0.013 3.259 0.045 4.8 0.01 0.88-0.02 1.743-0.196 2.528-0.626 0.82-0.449 1.405-1.099 1.674-2.017 0.144-0.491 0.17-0.99 0.164-1.495-1e-3 -0.112 0-0.225 0-0.337h0.837c9e-3 0.021 0.028 0.046 0.03 0.072 0.053 1.003-3e-3 1.988-0.526 2.885-0.546 0.937-1.343 1.568-2.351 1.959-0.885 0.342-1.798 0.469-2.742 0.462-1.664-0.011-5.177-3e-3 -5.291-3e-3v-6.066c-0.492-0.266-0.785-0.651-0.736-1.233 0.025-0.302 0.153-0.562 0.377-0.752 0.513-0.434 1.25-0.408 1.714 0.184 0.429 0.548 0.257 1.238-0.478 1.783zm-0.475-1.497c-0.294 0.067-0.411 0.302-0.38 0.45 0.039 0.188 0.221 0.346 0.395 0.341 0.195-5e-3 0.357-0.154 0.377-0.346 0.026-0.239-0.08-0.359-0.392-0.445z"/>
		<path d="m87.592 76.652c-0.019-0.616-0.019-1.242-0.063-1.864-0.052-0.741-0.351-1.387-0.848-1.939-0.398-0.443-0.892-0.747-1.439-0.962-0.661-0.26-1.346-0.403-2.062-0.405-1.52-3e-3 -4.684-0.014-4.782-3e-3v4.465h-0.856v-5.347c0.089-7e-3 3.93-0.029 5.767-7e-3 0.648 7e-3 1.283 0.141 1.902 0.349 0.551 0.185 1.067 0.429 1.528 0.78 0.813 0.618 1.341 1.42 1.583 2.42 0.1 0.413 0.123 0.824 0.123 1.241v1.266c0.422 0.246 0.724 0.571 0.73 1.091 4e-3 0.337-0.118 0.616-0.353 0.85-0.446 0.444-1.226 0.423-1.648-0.041-0.273-0.3-0.363-0.655-0.284-1.042 0.079-0.382 0.341-0.638 0.702-0.852zm0.834 1.099c-1e-3 -0.182-0.23-0.41-0.41-0.407-0.193 3e-3 -0.389 0.217-0.384 0.42 5e-3 0.201 0.186 0.38 0.39 0.385 0.203 5e-3 0.406-0.195 0.404-0.398z"/>
	</g>
	<g fill="none">
		
			<path d="m128.48 75.713-5.986 13.92h-1.034l1.81-4.216-3.937-9.704h1.054l2.287 5.807 1.153 2.844 1.134-2.864 2.466-5.787z"/>
			<path d="m131.33 75.713v1.75c0.756-1.352 2.128-1.909 3.5-1.929 2.625 0 4.435 1.611 4.435 4.335v5.667h-0.974v-5.647c0-2.227-1.372-3.421-3.5-3.401-2.028 0.02-3.44 1.551-3.44 3.579v5.469h-0.974v-9.823z"/>
			<path d="m151.25 75.713v9.823h-0.974v-2.088c-0.955 1.531-2.426 2.247-4.017 2.247-2.744 0-4.991-2.068-4.991-5.071 0-3.002 2.247-5.031 4.991-5.031 1.591 0 3.201 0.736 4.017 2.267v-2.148h0.974zm-9.009 4.911c0 2.466 1.79 4.117 4.017 4.117 5.469 0 5.469-8.213 0-8.213-2.227 0-4.017 1.631-4.017 4.096z"/>
			<path d="m164.38 75.415c0 1.432-0.875 2.545-2.267 2.983 1.75 0.477 2.744 1.889 2.744 3.5 0 2.864-2.665 3.639-5.051 3.639h-5.707v-13.92h5.707c2.347-1e-3 4.574 1.153 4.574 3.798zm-9.207 2.505h4.773c1.67 0 3.42-0.517 3.42-2.506 0-2.028-1.829-2.883-3.56-2.883h-4.633zm0 6.583h4.633c1.75 0 3.997-0.418 3.997-2.625-0.02-2.167-1.988-2.943-3.858-2.943h-4.773v5.568z"/>
			<path d="m175.63 75.713-5.986 13.92h-1.034l1.81-4.216-3.938-9.704h1.054l2.287 5.807 1.153 2.844 1.134-2.864 2.466-5.787z"/>
			<path d="m179.77 72.75v2.963h3.341v0.815h-3.341v5.986c0 1.332 0.278 2.267 1.81 2.267 0.477 0 1.014-0.159 1.511-0.398l0.338 0.795c-0.616 0.298-1.233 0.497-1.849 0.497-2.088 0-2.764-1.233-2.764-3.162v-5.986h-2.088v-0.815h2.088v-2.864z"/>
			<path d="m184.19 80.624c0-2.943 2.227-5.071 4.991-5.071s5.23 1.69 4.852 5.528h-8.849c0.199 2.307 1.969 3.639 3.997 3.639 1.293 0 2.804-0.517 3.54-1.491l0.696 0.557c-0.955 1.253-2.665 1.889-4.236 1.889-2.764 1e-3 -4.991-1.928-4.991-5.051zm8.968-0.397c-0.02-2.426-1.611-3.778-3.977-3.778-2.029 0-3.778 1.372-3.997 3.778z"/>
		
		<g clip-rule="evenodd" fill-rule="evenodd">
			<path d="m107.02 83.056v-10.253c0.112-0.013 3.583-0.052 4.453-0.026 0.58 0.017 1.161 0.075 1.693 0.356 0.83 0.437 1.286 1.142 1.312 2.054 0.046 1.652 0.026 3.307 0.022 4.96-1e-3 0.324-0.028 0.654-0.093 0.971-0.195 0.955-0.825 1.51-1.722 1.805-0.408 0.134-0.826 0.156-1.251 0.152-0.855-8e-3 -3.254-2e-3 -4.108-3e-3 -0.095 0-0.188-9e-3 -0.306-0.016zm0.973-9.264v8.239c0.056 0.011 0.094 0.025 0.132 0.025 0.782 0 3.109 0.013 3.891-0.014 0.229-8e-3 0.467-0.101 0.677-0.204 0.618-0.304 0.825-0.864 0.83-1.503 0.013-1.621 8e-3 -3.241 5e-3 -4.862-2e-3 -0.971-0.629-1.625-1.604-1.662-0.71-0.026-3.83-0.026-3.931-0.019z"/>
			<path d="m104.9 79.149v5.735c0.086 0.014 5.156 0.05 6.865 0.011 0.975-0.022 1.933-0.218 2.802-0.694 0.91-0.498 1.558-1.218 1.856-2.236 0.16-0.545 0.189-1.097 0.182-1.657-2e-3 -0.125 0-0.249 0-0.374h0.927c0.01 0.023 0.032 0.051 0.033 0.08 0.059 1.112-3e-3 2.203-0.582 3.198-0.605 1.039-1.489 1.739-2.606 2.171-0.981 0.379-1.994 0.52-3.04 0.513-1.845-0.013-7.283-3e-3 -7.409-3e-3v-6.724c-0.545-0.294-0.87-0.722-0.816-1.367 0.028-0.335 0.169-0.623 0.419-0.834 0.569-0.481 1.386-0.452 1.9 0.204 0.474 0.608 0.283 1.372-0.531 1.977zm-0.527-1.66c-0.326 0.074-0.455 0.335-0.421 0.499 0.044 0.209 0.245 0.383 0.438 0.378 0.216-5e-3 0.395-0.17 0.418-0.384 0.028-0.265-0.089-0.398-0.435-0.493z"/>
			<path d="m116.63 76.71c-0.021-0.683-0.021-1.377-0.07-2.067-0.058-0.821-0.39-1.537-0.94-2.15-0.441-0.491-0.989-0.828-1.596-1.067-0.732-0.289-1.492-0.447-2.285-0.449-1.685-3e-3 -6.737-0.016-6.845-3e-3v4.95h-0.949v-5.928c0.099-8e-3 5.901-0.032 7.937-8e-3 0.718 8e-3 1.422 0.157 2.108 0.387 0.61 0.205 1.182 0.475 1.694 0.864 0.901 0.685 1.487 1.574 1.755 2.683 0.11 0.457 0.137 0.913 0.136 1.376v1.403c0.468 0.273 0.802 0.633 0.81 1.21 5e-3 0.373-0.131 0.683-0.391 0.943-0.495 0.493-1.36 0.468-1.827-0.045-0.303-0.333-0.403-0.726-0.315-1.155 0.086-0.423 0.377-0.707 0.778-0.944zm0.925 1.219c-1e-3 -0.202-0.255-0.454-0.454-0.451-0.214 3e-3 -0.431 0.241-0.425 0.465 5e-3 0.223 0.206 0.421 0.432 0.427 0.223 5e-3 0.448-0.217 0.447-0.441z"/>
		</g>
	</g>
</g>
<rect x="-7.5685" y="-6.5886" width="124.99" height="27.229" fill="none"/></svg>
