<?xml version="1.0" encoding="UTF-8"?>
<!-- Generator: Adobe Illustrator 17.1.0, SVG Export Plug-In . SVG Version: 6.00 Build 0)  -->
<svg enable-background="new 0 0 263.52 155.52" version="1.1" viewBox="0 0 24.22 24.22" xml:space="preserve" xmlns="http://www.w3.org/2000/svg" xmlns:cc="http://creativecommons.org/ns#" xmlns:dc="http://purl.org/dc/elements/1.1/" xmlns:rdf="http://www.w3.org/1999/02/22-rdf-syntax-ns#"><metadata><rdf:RDF><cc:Work rdf:about=""><dc:format>image/svg+xml</dc:format><dc:type rdf:resource="http://purl.org/dc/dcmitype/StillImage"/><dc:title/></cc:Work></rdf:RDF></metadata><defs><clipPath id="clipPath4413"><rect x="-5.4992" y="-114.16" width="24.317" height="24.399" fill="none"/></clipPath><clipPath id="clipPath4417"><rect x="-4.9523" y="-106.32" width="24.317" height="24.399" fill="none"/></clipPath><clipPath id="clipPath4421"><rect x="15.296" y="23.887" width="24.317" height="24.399" fill="none"/></clipPath><clipPath id="clipPath4425"><rect x="15.296" y="23.887" width="24.317" height="24.399" fill="none"/></clipPath><clipPath id="clipPath4429"><rect x="15.296" y="23.887" width="24.317" height="24.399" fill="none"/></clipPath><clipPath id="clipPath4433"><rect x="15.296" y="23.887" width="24.317" height="24.399" fill="none"/></clipPath><clipPath id="clipPath4437"><rect x="15.296" y="23.887" width="24.317" height="24.399" fill="none"/></clipPath></defs>
<path transform="translate(-15.367 -24.04)" d="m188.57-5.814-39.737 39.737c-28.717 28.717-67.665 44.85-108.28 44.85h-51.439v9.946h50.775c40.612 0 79.56 16.133 108.28 44.85l28.591 28.591h90.909v-168.8z" clip-path="url(#clipPath4437)" fill="#1a1a1a"/>
<g transform="translate(-15.367 -24.04)" clip-path="url(#clipPath4433)" clip-rule="evenodd" fill-rule="evenodd">
	
		<rect transform="matrix(.7071 .7071 -.7071 .7071 33.61 -8.8412)" x="18.914" y="27.587" width="17.126" height="17.126" fill="#1a1a1a"/>
	<g fill="#fff">
		<path d="m25.092 40.282v-8.278c0.091-0.01 1.646-0.042 2.349-0.021 0.468 0.014 0.937 0.061 1.367 0.288 0.67 0.353 1.039 0.922 1.059 1.658 0.037 1.334 0.021 2.67 0.018 4.005-1e-3 0.261-0.023 0.528-0.075 0.784-0.157 0.771-0.666 1.219-1.39 1.457-0.329 0.108-0.667 0.126-1.01 0.122-0.69-6e-3 -1.38-1e-3 -2.07-2e-3 -0.077 0-0.152-7e-3 -0.248-0.013zm0.786-7.479v6.652c0.045 9e-3 0.076 0.02 0.107 0.02 0.632 0 1.264 0.01 1.895-0.011 0.185-6e-3 0.377-0.082 0.547-0.165 0.499-0.245 0.666-0.698 0.67-1.213 0.011-1.308 7e-3 -2.617 4e-3 -3.925-2e-3 -0.784-0.508-1.312-1.295-1.341-0.574-0.023-1.846-0.023-1.928-0.017z"/>
		<path d="m23.383 37.128v4.631c0.069 0.011 2.916 0.04 4.296 9e-3 0.787-0.018 1.56-0.176 2.263-0.561 0.734-0.402 1.258-0.984 1.498-1.805 0.129-0.44 0.153-0.886 0.147-1.338-1e-3 -0.101 0-0.201 0-0.302h0.749c8e-3 0.019 0.025 0.041 0.027 0.065 0.047 0.898-3e-3 1.779-0.47 2.582-0.489 0.839-1.202 1.404-2.104 1.753-0.792 0.306-1.609 0.419-2.454 0.414-1.49-0.01-4.633-3e-3 -4.735-3e-3v-5.429c-0.44-0.238-0.702-0.583-0.659-1.103 0.022-0.271 0.137-0.503 0.338-0.673 0.459-0.389 1.119-0.365 1.534 0.164 0.382 0.49 0.228 1.107-0.43 1.596zm-0.425-1.34c-0.263 0.06-0.368 0.27-0.34 0.403 0.035 0.169 0.198 0.309 0.354 0.305 0.174-4e-3 0.319-0.137 0.337-0.31 0.023-0.214-0.072-0.322-0.351-0.398z"/>
		<path d="m31.603 35.159c-0.017-0.551-0.017-1.111-0.056-1.669-0.047-0.663-0.315-1.241-0.759-1.736-0.356-0.396-0.799-0.668-1.288-0.861-0.591-0.233-1.205-0.361-1.845-0.362-1.36-3e-3 -4.192-0.013-4.28-3e-3v3.996h-0.766v-4.786c0.08-6e-3 3.517-0.026 5.161-7e-3 0.58 7e-3 1.148 0.127 1.702 0.313 0.493 0.166 0.955 0.384 1.368 0.698 0.728 0.553 1.2 1.271 1.417 2.166 0.089 0.369 0.11 0.737 0.11 1.111v1.133c0.378 0.22 0.648 0.511 0.654 0.977 4e-3 0.301-0.105 0.552-0.316 0.761-0.399 0.398-1.098 0.378-1.475-0.036-0.245-0.269-0.325-0.586-0.254-0.932 0.069-0.343 0.304-0.572 0.627-0.763zm0.747 0.984c-1e-3 -0.163-0.206-0.367-0.367-0.364-0.173 3e-3 -0.348 0.194-0.343 0.376 4e-3 0.18 0.167 0.34 0.349 0.344 0.181 4e-3 0.363-0.175 0.361-0.356z"/>
	</g>
</g>
<g transform="translate(-15.367 -24.04)" clip-path="url(#clipPath4429)" fill="#1a1a1a">
	
		<path d="m68.2 34.318-5.357 12.458h-0.926l1.62-3.773-3.524-8.685h0.943l2.047 5.197 1.032 2.545 1.014-2.563 2.207-5.179z"/>
		<path d="m70.745 34.318v1.566c0.676-1.21 1.904-1.709 3.132-1.726 2.349 0 3.969 1.442 3.969 3.88v5.072h-0.872v-5.054c0-1.994-1.228-3.061-3.132-3.044-1.815 0.018-3.079 1.388-3.079 3.203v4.894h-0.873v-8.792h0.855z"/>
		<path d="m88.578 34.318v8.792h-0.872v-1.869c-0.854 1.37-2.171 2.011-3.595 2.011-2.456 0-4.467-1.851-4.467-4.539 0-2.687 2.011-4.503 4.467-4.503 1.424 0 2.865 0.658 3.595 2.029v-1.922h0.872zm-8.062 4.396c0 2.207 1.602 3.684 3.595 3.684 4.894 0 4.894-7.35 0-7.35-1.993 0-3.595 1.459-3.595 3.666z"/>
		<path d="m100.32 34.051c0 1.281-0.783 2.278-2.029 2.67 1.566 0.427 2.456 1.691 2.456 3.132 0 2.563-2.385 3.257-4.521 3.257h-5.108v-12.458h5.108c2.101 0 4.094 1.032 4.094 3.399zm-8.24 2.243h4.271c1.495 0 3.061-0.463 3.061-2.242 0-1.815-1.637-2.581-3.186-2.581h-4.147v4.823zm0 5.891h4.147c1.566 0 3.577-0.374 3.577-2.349-0.018-1.94-1.78-2.634-3.453-2.634h-4.271z"/>
		<path d="m110.4 34.318-5.357 12.458h-0.925l1.62-3.773-3.524-8.685h0.943l2.047 5.197 1.032 2.545 1.014-2.563 2.207-5.179z"/>
		<path d="m114.1 31.666v2.652h2.99v0.73h-2.99v5.357c0 1.192 0.249 2.029 1.62 2.029 0.427 0 0.908-0.142 1.353-0.356l0.303 0.712c-0.552 0.267-1.104 0.445-1.655 0.445-1.869 0-2.474-1.103-2.474-2.83v-5.357h-1.869v-0.73h1.869v-2.563z"/>
		<path d="m118.05 38.714c0-2.634 1.993-4.538 4.467-4.538s4.681 1.513 4.343 4.948h-7.92c0.178 2.065 1.762 3.257 3.577 3.257 1.157 0 2.509-0.463 3.168-1.335l0.623 0.498c-0.854 1.121-2.385 1.691-3.791 1.691-2.473 0-4.467-1.727-4.467-4.521zm8.027-0.356c-0.018-2.171-1.442-3.381-3.56-3.381-1.815 0-3.382 1.228-3.577 3.381z"/>
	
	<g clip-rule="evenodd" fill-rule="evenodd">
		<path d="m48.989 40.89v-9.176c0.1-0.011 3.207-0.046 3.985-0.023 0.519 0.015 1.039 0.068 1.515 0.319 0.743 0.391 1.151 1.022 1.174 1.838 0.041 1.479 0.023 2.959 0.019 4.439-1e-3 0.29-0.025 0.585-0.083 0.869-0.174 0.855-0.738 1.352-1.541 1.615-0.365 0.12-0.74 0.139-1.12 0.136-0.765-7e-3 -2.912-1e-3 -3.677-3e-3 -0.082 1e-3 -0.166-8e-3 -0.272-0.014zm0.871-8.291v7.374c0.05 0.01 0.084 0.022 0.118 0.022 0.7 0 2.783 0.011 3.482-0.013 0.205-7e-3 0.418-0.09 0.606-0.183 0.553-0.272 0.738-0.773 0.743-1.345 0.012-1.451 8e-3 -2.901 5e-3 -4.351-2e-3 -0.869-0.563-1.454-1.436-1.487-0.635-0.023-3.427-0.024-3.518-0.017z"/>
		<path d="m47.095 37.394v5.133c0.077 0.013 4.615 0.045 6.144 0.01 0.873-0.02 1.73-0.195 2.508-0.621 0.814-0.446 1.394-1.091 1.661-2.001 0.143-0.488 0.169-0.982 0.163-1.483-2e-3 -0.112 0-0.223 0-0.334h0.83c9e-3 0.021 0.028 0.046 0.029 0.072 0.053 0.995-3e-3 1.972-0.521 2.862-0.542 0.93-1.333 1.556-2.333 1.943-0.878 0.339-1.784 0.465-2.721 0.459-1.651-0.011-6.518-3e-3 -6.631-3e-3v-6.018c-0.488-0.263-0.778-0.646-0.731-1.223 0.025-0.3 0.152-0.558 0.375-0.746 0.509-0.431 1.241-0.405 1.7 0.182 0.426 0.542 0.256 1.226-0.473 1.768zm-0.472-1.486c-0.292 0.066-0.407 0.3-0.377 0.447 0.039 0.187 0.22 0.343 0.392 0.339 0.193-5e-3 0.354-0.152 0.374-0.344 0.026-0.238-0.079-0.357-0.389-0.442z"/>
		<path d="m57.589 35.21c-0.019-0.611-0.019-1.232-0.062-1.85-0.052-0.735-0.349-1.376-0.841-1.924-0.395-0.439-0.885-0.741-1.428-0.955-0.655-0.258-1.335-0.4-2.045-0.401-1.508-3e-3 -6.029-0.014-6.126-3e-3v4.43h-0.85v-5.305c0.088-7e-3 5.281-0.028 7.104-7e-3 0.642 7e-3 1.272 0.14 1.887 0.347 0.546 0.184 1.058 0.425 1.516 0.774 0.807 0.613 1.331 1.409 1.571 2.401 0.099 0.409 0.122 0.817 0.122 1.231v1.256c0.419 0.244 0.718 0.566 0.725 1.083 4e-3 0.334-0.117 0.612-0.35 0.844-0.443 0.441-1.217 0.419-1.635-0.04-0.271-0.298-0.36-0.65-0.282-1.034 0.075-0.38 0.336-0.635 0.694-0.847zm0.828 1.091c-1e-3 -0.18-0.229-0.406-0.406-0.404-0.191 3e-3 -0.385 0.216-0.381 0.417 5e-3 0.199 0.185 0.377 0.386 0.382s0.402-0.194 0.401-0.395z"/>
	</g>
</g>
<g transform="translate(-15.367 -24.04)" clip-path="url(#clipPath4425)">
	<text transform="translate(141.05 68.97)" fill="#ffffff" font-family="ProximaNova-Light" font-size="9.1266px"><tspan x="0" y="0">Telp</tspan><tspan x="0" y="10.952">+447737789310 (mobile)</tspan></text>

</g>
<g transform="translate(-15.367 -24.04)" clip-path="url(#clipPath4421)">
	<text transform="translate(141.05 93.823)" fill="#ffffff" font-family="ProximaNova-Light" font-size="9.1266px"><tspan x="0" y="0">E-mail</tspan><tspan x="0" y="10.952">arman@yaraee.net</tspan></text>

</g>
<text transform="translate(4.8807 106.17)" clip-path="url(#clipPath4417)" fill="#1a1a1a" font-family="Purista-Medium" font-size="13.619px">Arman Yaraee</text>

<text transform="translate(5.4276 114.01)" clip-path="url(#clipPath4413)" fill="#1a1a1a" font-family="ProximaNova-RegularIt" font-size="7.4273px" letter-spacing="1">Director</text>

</svg>
